<?xml version="1.0" encoding="UTF-8" standalone="no"?>
<svg
   xmlns:dc="http://purl.org/dc/elements/1.1/"
   xmlns:cc="http://creativecommons.org/ns#"
   xmlns:rdf="http://www.w3.org/1999/02/22-rdf-syntax-ns#"
   xmlns:svg="http://www.w3.org/2000/svg"
   xmlns="http://www.w3.org/2000/svg"
   xmlns:sodipodi="http://sodipodi.sourceforge.net/DTD/sodipodi-0.dtd"
   xmlns:inkscape="http://www.inkscape.org/namespaces/inkscape"
   height="500"
   id="svg2"
   version="1.1"
   width="500"
   sodipodi:docname="vk.svg"
   inkscape:version="0.92.4 (5da689c313, 2019-01-14)">
  <metadata
     id="metadata41">
    <rdf:RDF>
      <cc:Work
         rdf:about="">
        <dc:format>image/svg+xml</dc:format>
        <dc:type
           rdf:resource="http://purl.org/dc/dcmitype/StillImage" />
      </cc:Work>
    </rdf:RDF>
  </metadata>
  <sodipodi:namedview
     pagecolor="#ffffff"
     bordercolor="#666666"
     borderopacity="1"
     objecttolerance="10"
     gridtolerance="10"
     guidetolerance="10"
     inkscape:pageopacity="0"
     inkscape:pageshadow="2"
     inkscape:window-width="1680"
     inkscape:window-height="988"
     id="namedview39"
     showgrid="false"
     inkscape:zoom="1.578"
     inkscape:cx="250"
     inkscape:cy="250"
     inkscape:window-x="-8"
     inkscape:window-y="-8"
     inkscape:window-maximized="1"
     inkscape:current-layer="layer1" />
  <defs
     id="defs4" />
  <g
     id="layer1"
     transform="translate(0,-552.36218)">
    <path
       style="display:inline;fill:#54944d;fill-opacity:1;stroke:none"
       d="M 250,0 C 111.5,0 0,111.5 0,250 0,388.5 111.5,500 250,500 388.5,500 500,388.5 500,250 500,111.5 388.5,0 250,0 Z m 11.27734,159.73242 c 3.67776,-0.0175 8.45249,0.6287 11.47461,2.72461 2.22782,1.54508 5.16517,3.33729 5.20117,10.30078 0.11781,22.78147 -0.16616,42.62179 0.17383,65.87696 0.44398,4.84059 3.60463,6.8641 6.57617,6.84961 2.97158,-0.0146 6.37661,-1.87329 8.92579,-4.375 13.80555,-13.55422 29.70584,-46.15998 39.45117,-67.52735 3.63676,-7.97388 9.50199,-7.46461 16.125,-7.47461 22.17388,-0.0326 31.16464,0.25837 51.95117,0.375 3.80653,0.0204 7.12195,3.22818 8.19922,5.55078 0.93026,2.00563 1.58509,7.82704 -3.47461,16.04883 -15.56555,25.29323 -29.87651,45.65661 -47.20117,69.70313 -1.09273,1.5167 -2.13491,3.3302 -2.09961,5.19922 0.0324,1.70913 0.92186,3.38607 2.09961,4.625 15.44683,16.2494 31.56491,32.62142 47.37695,50.50195 4.65874,5.26819 1.75272,13.39832 0.47461,15.67578 -0.96821,1.7253 -5.35028,6.15023 -8.30078,6.17383 -10.74525,0.086 -10.78136,0 -55.77539,0 -6.66316,0 -9.32645,-1.94511 -12.85156,-5.64844 -15.60021,-16.38889 -13.65413,-14.39769 -30.7754,-32.70117 -2.22426,-2.37784 -6.63906,-5.37986 -10.8496,-3.47656 -3.57392,1.61551 -10.125,4.00541 -10.125,10.57617 v 22.97656 c 0,4.17046 -6.54158,7.27344 -10.47657,7.27344 h -30.625 c -14.41352,0 -26.88441,-3.46571 -33.80078,-6.82422 -29.79753,-14.4694 -47.50636,-34.61458 -66.87695,-68.15234 -16.54073,-28.6382 -30.92999,-56.85293 -45.101564,-86.40235 -1.583272,-3.30134 -2.720876,-10.54883 9.099614,-10.54883 12.48803,0 24.209,-0.27539 43.20117,-0.27539 5.57545,0 9.05344,1.12205 11.40039,2.82422 2.34694,1.70216 3.479,3.96567 4.625,6.09961 23.62841,43.99745 23.68577,46.69413 40.55273,68.52734 1.58354,2.04979 3.88292,2.366 5.57422,2.375 2.08996,0.0116 4.02375,-0.33812 5.65039,-1.65039 3.4147,-2.75475 4.375,-5.69721 4.375,-9.92382 V 190.5332 c 0,-5.09869 -3.46487,-12.64743 -7.30078,-15.02539 -3.97398,-2.28754 -10.50787,-4.57353 -10.29883,-7.40039 0.2286,-3.09184 7.41925,-8.27539 20.22461,-8.27539 15.31013,0 26.17022,-0.0202 43.20117,-0.0996 z"
       transform="translate(0,552.36218)"
       id="rect2990-1"
       inkscape:connector-curvature="0" />
  </g>
</svg>
